<svg xmlns="http://www.w3.org/2000/svg" xmlns:xlink="http://www.w3.org/1999/xlink" width="1920" zoomAndPan="magnify" viewBox="0 0 1440 809.999993" height="1080" preserveAspectRatio="xMidYMid meet" version="1.0"><defs><clipPath id="dcdf15663c"><path d="M 520.402344 205.402344 L 919.402344 205.402344 L 919.402344 604.402344 L 520.402344 604.402344 Z M 520.402344 205.402344 " clip-rule="nonzero"/></clipPath></defs><rect x="-144" width="1728" fill="#ffffff" y="-80.999999" height="971.999992" fill-opacity="1"/><rect x="-144" width="1728" fill="#ffffff" y="-80.999999" height="971.999992" fill-opacity="1"/><g clip-path="url(#dcdf15663c)"><path fill="#000000" d="M 919.402344 404.902344 C 919.402344 408.167969 919.324219 411.433594 919.164062 414.691406 C 919.003906 417.953125 918.761719 421.207031 918.441406 424.457031 C 918.121094 427.707031 917.722656 430.945312 917.246094 434.175781 C 916.765625 437.40625 916.207031 440.621094 915.570312 443.824219 C 914.933594 447.027344 914.21875 450.210938 913.425781 453.378906 C 912.632812 456.546875 911.761719 459.691406 910.8125 462.816406 C 909.867188 465.941406 908.839844 469.039062 907.742188 472.113281 C 906.640625 475.1875 905.46875 478.234375 904.21875 481.25 C 902.96875 484.265625 901.644531 487.25 900.25 490.199219 C 898.855469 493.152344 897.386719 496.066406 895.847656 498.949219 C 894.308594 501.828125 892.699219 504.667969 891.019531 507.46875 C 889.34375 510.269531 887.59375 513.023438 885.78125 515.738281 C 883.96875 518.453125 882.089844 521.125 880.144531 523.746094 C 878.199219 526.367188 876.191406 528.941406 874.121094 531.464844 C 872.046875 533.988281 869.914062 536.460938 867.722656 538.878906 C 865.53125 541.300781 863.28125 543.664062 860.972656 545.972656 C 858.664062 548.28125 856.296875 550.53125 853.878906 552.722656 C 851.460938 554.917969 848.988281 557.046875 846.464844 559.121094 C 843.941406 561.191406 841.367188 563.199219 838.746094 565.144531 C 836.125 567.089844 833.453125 568.96875 830.738281 570.78125 C 828.023438 572.597656 825.265625 574.34375 822.46875 576.019531 C 819.667969 577.699219 816.828125 579.308594 813.945312 580.847656 C 811.066406 582.386719 808.152344 583.855469 805.199219 585.25 C 802.25 586.644531 799.265625 587.96875 796.25 589.21875 C 793.234375 590.46875 790.1875 591.640625 787.113281 592.742188 C 784.039062 593.839844 780.941406 594.867188 777.816406 595.8125 C 774.691406 596.761719 771.546875 597.632812 768.378906 598.425781 C 765.210938 599.21875 762.027344 599.933594 758.824219 600.570312 C 755.621094 601.207031 752.40625 601.765625 749.175781 602.246094 C 745.945312 602.722656 742.707031 603.121094 739.457031 603.441406 C 736.207031 603.761719 732.953125 604.003906 729.691406 604.164062 C 726.429688 604.324219 723.167969 604.402344 719.902344 604.402344 C 716.636719 604.402344 713.375 604.324219 710.113281 604.164062 C 706.855469 604.003906 703.597656 603.761719 700.347656 603.441406 C 697.101562 603.121094 693.859375 602.722656 690.632812 602.246094 C 687.402344 601.765625 684.183594 601.207031 680.984375 600.570312 C 677.78125 599.933594 674.597656 599.21875 671.429688 598.425781 C 668.261719 597.632812 665.117188 596.761719 661.992188 595.8125 C 658.867188 594.867188 655.769531 593.839844 652.695312 592.742188 C 649.621094 591.640625 646.574219 590.46875 643.558594 589.21875 C 640.542969 587.96875 637.558594 586.644531 634.605469 585.25 C 631.65625 583.855469 628.738281 582.386719 625.859375 580.847656 C 622.980469 579.308594 620.140625 577.699219 617.339844 576.019531 C 614.539062 574.34375 611.78125 572.597656 609.066406 570.78125 C 606.351562 568.96875 603.683594 567.089844 601.0625 565.144531 C 598.4375 563.199219 595.867188 561.191406 593.34375 559.121094 C 590.816406 557.046875 588.347656 554.917969 585.925781 552.722656 C 583.507812 550.53125 581.144531 548.28125 578.835938 545.972656 C 576.527344 543.664062 574.277344 541.300781 572.082031 538.878906 C 569.890625 536.460938 567.757812 533.988281 565.6875 531.464844 C 563.617188 528.941406 561.609375 526.367188 559.664062 523.746094 C 557.71875 521.125 555.839844 518.453125 554.027344 515.738281 C 552.210938 513.023438 550.464844 510.269531 548.785156 507.46875 C 547.109375 504.667969 545.5 501.828125 543.960938 498.949219 C 542.421875 496.066406 540.953125 493.152344 539.558594 490.199219 C 538.160156 487.25 536.839844 484.265625 535.589844 481.25 C 534.339844 478.234375 533.164062 475.1875 532.066406 472.113281 C 530.964844 469.039062 529.941406 465.941406 528.992188 462.816406 C 528.046875 459.691406 527.175781 456.546875 526.382812 453.378906 C 525.589844 450.210938 524.875 447.027344 524.238281 443.824219 C 523.601562 440.621094 523.042969 437.40625 522.5625 434.175781 C 522.082031 430.945312 521.683594 427.707031 521.363281 424.457031 C 521.042969 421.207031 520.804688 417.953125 520.644531 414.691406 C 520.484375 411.433594 520.402344 408.167969 520.402344 404.902344 C 520.402344 401.640625 520.484375 398.375 520.644531 395.113281 C 520.804688 391.855469 521.042969 388.597656 521.363281 385.347656 C 521.683594 382.101562 522.082031 378.859375 522.5625 375.632812 C 523.042969 372.402344 523.601562 369.183594 524.238281 365.984375 C 524.875 362.78125 525.589844 359.597656 526.382812 356.429688 C 527.175781 353.261719 528.046875 350.117188 528.992188 346.992188 C 529.941406 343.867188 530.964844 340.769531 532.066406 337.695312 C 533.164062 334.621094 534.339844 331.574219 535.589844 328.558594 C 536.839844 325.542969 538.160156 322.558594 539.558594 319.605469 C 540.953125 316.65625 542.421875 313.738281 543.960938 310.859375 C 545.5 307.980469 547.109375 305.140625 548.785156 302.339844 C 550.464844 299.539062 552.210938 296.78125 554.027344 294.066406 C 555.839844 291.351562 557.71875 288.683594 559.664062 286.0625 C 561.609375 283.4375 563.617188 280.867188 565.6875 278.34375 C 567.757812 275.820312 569.890625 273.347656 572.082031 270.925781 C 574.277344 268.507812 576.527344 266.144531 578.835938 263.835938 C 581.144531 261.527344 583.507812 259.277344 585.925781 257.082031 C 588.347656 254.890625 590.816406 252.757812 593.34375 250.6875 C 595.867188 248.617188 598.4375 246.609375 601.0625 244.664062 C 603.683594 242.71875 606.351562 240.839844 609.066406 239.027344 C 611.78125 237.210938 614.539062 235.464844 617.339844 233.785156 C 620.140625 232.109375 622.980469 230.5 625.859375 228.960938 C 628.738281 227.421875 631.65625 225.953125 634.605469 224.558594 C 637.558594 223.160156 640.542969 221.839844 643.558594 220.589844 C 646.574219 219.339844 649.621094 218.164062 652.695312 217.066406 C 655.769531 215.964844 658.867188 214.941406 661.992188 213.992188 C 665.117188 213.046875 668.261719 212.175781 671.429688 211.382812 C 674.597656 210.589844 677.78125 209.875 680.984375 209.238281 C 684.183594 208.601562 687.402344 208.042969 690.632812 207.5625 C 693.859375 207.082031 697.101562 206.683594 700.347656 206.363281 C 703.597656 206.042969 706.855469 205.804688 710.113281 205.644531 C 713.375 205.484375 716.636719 205.402344 719.902344 205.402344 C 723.167969 205.402344 726.429688 205.484375 729.691406 205.644531 C 732.953125 205.804688 736.207031 206.042969 739.457031 206.363281 C 742.707031 206.683594 745.945312 207.082031 749.175781 207.5625 C 752.40625 208.042969 755.621094 208.601562 758.824219 209.238281 C 762.027344 209.875 765.210938 210.589844 768.378906 211.382812 C 771.546875 212.175781 774.691406 213.046875 777.816406 213.992188 C 780.941406 214.941406 784.039062 215.964844 787.113281 217.066406 C 790.1875 218.164062 793.234375 219.339844 796.25 220.589844 C 799.265625 221.839844 802.25 223.160156 805.199219 224.558594 C 808.152344 225.953125 811.066406 227.421875 813.945312 228.960938 C 816.828125 230.5 819.667969 232.109375 822.46875 233.785156 C 825.265625 235.464844 828.023438 237.210938 830.738281 239.027344 C 833.453125 240.839844 836.125 242.71875 838.746094 244.664062 C 841.367188 246.609375 843.941406 248.617188 846.464844 250.6875 C 848.988281 252.757812 851.460938 254.890625 853.878906 257.082031 C 856.296875 259.277344 858.664062 261.527344 860.972656 263.835938 C 863.28125 266.144531 865.53125 268.507812 867.722656 270.925781 C 869.914062 273.347656 872.046875 275.820312 874.121094 278.34375 C 876.191406 280.867188 878.199219 283.4375 880.144531 286.0625 C 882.089844 288.683594 883.96875 291.351562 885.78125 294.066406 C 887.59375 296.78125 889.34375 299.539062 891.019531 302.339844 C 892.699219 305.140625 894.308594 307.980469 895.847656 310.859375 C 897.386719 313.738281 898.855469 316.65625 900.25 319.605469 C 901.644531 322.558594 902.96875 325.542969 904.21875 328.558594 C 905.46875 331.574219 906.640625 334.621094 907.742188 337.695312 C 908.839844 340.769531 909.867188 343.867188 910.8125 346.992188 C 911.761719 350.117188 912.632812 353.261719 913.425781 356.429688 C 914.21875 359.597656 914.933594 362.78125 915.570312 365.984375 C 916.207031 369.183594 916.765625 372.402344 917.246094 375.632812 C 917.722656 378.859375 918.121094 382.101562 918.441406 385.347656 C 918.761719 388.597656 919.003906 391.855469 919.164062 395.113281 C 919.324219 398.375 919.402344 401.640625 919.402344 404.902344 Z M 919.402344 404.902344 " fill-opacity="1" fill-rule="nonzero"/></g><path fill="#ffffff" d="M 808.070312 316.734375 C 784.519531 293.1875 753.207031 280.214844 719.902344 280.214844 C 686.597656 280.214844 655.285156 293.1875 631.734375 316.734375 C 608.1875 340.285156 595.214844 371.597656 595.214844 404.902344 C 595.214844 438.207031 608.1875 469.519531 631.734375 493.070312 C 655.285156 516.621094 686.597656 529.589844 719.902344 529.589844 C 753.207031 529.589844 784.519531 516.621094 808.070312 493.070312 C 831.621094 469.519531 844.589844 438.207031 844.589844 404.902344 C 844.589844 371.597656 831.621094 340.285156 808.070312 316.734375 Z M 609.007812 404.902344 C 609.007812 391.015625 611.582031 377.722656 616.261719 365.460938 L 661.113281 365.460938 C 659.101562 378.007812 658.050781 391.292969 658.050781 404.902344 C 658.050781 418.058594 659.027344 430.910156 660.910156 443.085938 L 615.78125 443.085938 C 611.402344 431.175781 609.007812 418.3125 609.007812 404.902344 Z M 671.84375 404.902344 C 671.84375 391.207031 672.953125 377.898438 675.078125 365.460938 L 713.007812 365.460938 L 713.007812 443.085938 L 674.867188 443.085938 C 672.878906 431.007812 671.84375 418.140625 671.84375 404.902344 Z M 752.515625 324.527344 C 756.296875 332.632812 759.433594 341.777344 761.867188 351.667969 L 726.800781 351.667969 L 726.800781 295.285156 C 736.148438 298.714844 745.246094 308.949219 752.515625 324.527344 Z M 713.007812 295.285156 L 713.007812 351.667969 L 677.9375 351.667969 C 680.375 341.777344 683.511719 332.632812 687.292969 324.527344 C 694.558594 308.949219 703.660156 298.714844 713.007812 295.285156 Z M 713.007812 456.875 L 713.007812 514.523438 C 703.660156 511.09375 694.558594 500.859375 687.292969 485.28125 C 683.351562 476.828125 680.113281 467.25 677.632812 456.875 Z M 726.800781 514.523438 L 726.800781 456.875 L 762.171875 456.875 C 759.695312 467.25 756.457031 476.828125 752.515625 485.28125 C 745.246094 500.859375 736.148438 511.09375 726.800781 514.523438 Z M 726.800781 443.085938 L 726.800781 365.460938 L 764.726562 365.460938 C 766.851562 377.898438 767.964844 391.207031 767.964844 404.902344 C 767.964844 418.140625 766.929688 431.007812 764.941406 443.085938 Z M 778.695312 365.460938 L 823.542969 365.460938 C 828.226562 377.722656 830.800781 391.015625 830.800781 404.902344 C 830.800781 418.3125 828.40625 431.175781 824.027344 443.085938 L 778.898438 443.085938 C 780.777344 430.910156 781.757812 418.058594 781.757812 404.902344 C 781.757812 391.292969 780.707031 378.007812 778.695312 365.460938 Z M 817.160156 351.667969 L 776.027344 351.667969 C 773.277344 339.625 769.582031 328.488281 765.011719 318.695312 C 761.46875 311.101562 757.507812 304.554688 753.214844 299.121094 C 780.65625 307.78125 803.519531 326.847656 817.160156 351.667969 Z M 686.589844 299.121094 C 682.300781 304.554688 678.339844 311.101562 674.792969 318.695312 C 670.226562 328.488281 666.527344 339.625 663.78125 351.667969 L 622.644531 351.667969 C 636.285156 326.847656 659.148438 307.78125 686.589844 299.121094 Z M 621.964844 456.875 L 663.492188 456.875 C 666.265625 469.40625 670.066406 480.976562 674.792969 491.109375 C 678.339844 498.707031 682.300781 505.25 686.589844 510.683594 C 658.6875 501.878906 635.519531 482.3125 621.964844 456.875 Z M 753.214844 510.683594 C 757.507812 505.25 761.46875 498.707031 765.011719 491.109375 C 769.742188 480.976562 773.539062 469.40625 776.316406 456.875 L 817.84375 456.875 C 804.289062 482.3125 781.121094 501.878906 753.214844 510.683594 Z M 753.214844 510.683594 " fill-opacity="1" fill-rule="nonzero"/></svg>